<svg viewBox="0 0 860 360" xmlns="http://www.w3.org/2000/svg" font-family="-apple-system, BlinkMacSystemFont, Segoe UI, Helvetica, Arial, sans-serif">
  <rect width="860" height="360" fill="#0d1117"/>
  <text x="28" y="36" fill="#f0f6fc" font-size="22" font-weight="700">Ponytail benchmark: median lines of code</text>
  <text x="28" y="60" fill="#8b949e" font-size="13">Source: DietrichGebert/ponytail benchmark README. Five tasks, 10 runs per cell, median reported.</text>
  <rect x="28" y="82" width="12" height="12" rx="2" fill="#8b949e"/><text x="46" y="93" fill="#c9d1d9" font-size="13">baseline (no skill)</text>
  <rect x="196" y="82" width="12" height="12" rx="2" fill="#d9822b"/><text x="214" y="93" fill="#c9d1d9" font-size="13">caveman</text>
  <rect x="304" y="82" width="12" height="12" rx="2" fill="#2da44e"/><text x="322" y="93" fill="#c9d1d9" font-size="13">ponytail</text>

  <line x1="130" y1="110" x2="130" y2="304" stroke="#30363d"/>
  <line x1="130" y1="304" x2="812" y2="304" stroke="#30363d"/>
  <text x="130" y="326" fill="#8b949e" font-size="11" text-anchor="middle">0</text>
  <text x="326" y="326" fill="#8b949e" font-size="11" text-anchor="middle">200</text>
  <text x="522" y="326" fill="#8b949e" font-size="11" text-anchor="middle">400</text>
  <text x="718" y="326" fill="#8b949e" font-size="11" text-anchor="middle">600</text>
  <line x1="326" y1="110" x2="326" y2="304" stroke="#21262d"/>
  <line x1="522" y1="110" x2="522" y2="304" stroke="#21262d"/>
  <line x1="718" y1="110" x2="718" y2="304" stroke="#21262d"/>

  <text x="112" y="141" fill="#f0f6fc" font-size="14" font-weight="600" text-anchor="end">Haiku</text>
  <rect x="130" y="120" width="507" height="14" rx="2" fill="#8b949e"/><text x="646" y="132" fill="#c9d1d9" font-size="12">518</text>
  <rect x="130" y="140" width="114" height="14" rx="2" fill="#d9822b"/><text x="253" y="152" fill="#f2cc8f" font-size="12">116</text>
  <rect x="130" y="160" width="38" height="14" rx="2" fill="#2da44e"/><text x="177" y="172" fill="#7ee787" font-size="12" font-weight="700">39</text>

  <text x="112" y="213" fill="#f0f6fc" font-size="14" font-weight="600" text-anchor="end">Sonnet</text>
  <rect x="130" y="192" width="680" height="14" rx="2" fill="#8b949e"/><text x="818" y="204" fill="#c9d1d9" font-size="12">693</text>
  <rect x="130" y="212" width="118" height="14" rx="2" fill="#d9822b"/><text x="257" y="224" fill="#f2cc8f" font-size="12">120</text>
  <rect x="130" y="232" width="43" height="14" rx="2" fill="#2da44e"/><text x="182" y="244" fill="#7ee787" font-size="12" font-weight="700">44</text>

  <text x="112" y="285" fill="#f0f6fc" font-size="14" font-weight="600" text-anchor="end">Opus</text>
  <rect x="130" y="264" width="251" height="14" rx="2" fill="#8b949e"/><text x="390" y="276" fill="#c9d1d9" font-size="12">256</text>
  <rect x="130" y="284" width="66" height="14" rx="2" fill="#d9822b"/><text x="205" y="296" fill="#f2cc8f" font-size="12">67</text>
  <rect x="130" y="304" width="50" height="14" rx="2" fill="#2da44e"/><text x="189" y="316" fill="#7ee787" font-size="12" font-weight="700">51</text>

  <text x="28" y="348" fill="#8b949e" font-size="11">Tasks: email validator, JS debounce, CSV sum, React countdown, FastAPI rate-limit. Lower is leaner.</text>
</svg>
